<?xml version="1.0" encoding="UTF-8" standalone="no"?>
<svg
   width="428.15973"
   height="105.63536"
   viewBox="-702 0 428.15973 105.63536"
   version="1.2"
   id="svg340"
   sodipodi:docname="DESIGN MON SITE - page 1.svg"
   xmlns:inkscape="http://www.inkscape.org/namespaces/inkscape"
   xmlns:sodipodi="http://sodipodi.sourceforge.net/DTD/sodipodi-0.dtd"
   xmlns="http://www.w3.org/2000/svg"
   xmlns:svg="http://www.w3.org/2000/svg"><defs
   id="defs344" />
<sodipodi:namedview
   id="namedview342"
   pagecolor="#ffffff"
   bordercolor="#000000"
   borderopacity="0.25"
   inkscape:showpageshadow="2"
   inkscape:pageopacity="0.0"
   inkscape:pagecheckerboard="0"
   inkscape:deskcolor="#d1d1d1"
   showgrid="false" />
<title
   id="title132">DESIGN MON SITE</title>
\n<g
   id="g1257"
   inkscape:export-filename="g1257.svg"
   inkscape:export-xdpi="96"
   inkscape:export-ydpi="96"
   transform="translate(-138.53119,-245.52647)">
  <g
     id="g338"
     transform="translate(55.837964,-259.91822)"
     style="fill:#e63ee6;fill-opacity:0.982332;stroke:#85ff28;stroke-opacity:1"
     inkscape:label="highlight">
    <path
       fill="none"
       stroke="#404040"
       stroke-width="30"
       stroke-linecap="butt"
       stroke-linejoin="bevel"
       opacity="0.500008"
       d="m -575.35197,540.32645 0.111,-0.689 0.125,0.214 4,-1.206 1.926,-0.232 0.866,0.047 -0.29,0.151 0.146,-0.275 2.572,-0.38 0.948,-0.524 4.091,0.187 4.664,-1.036 5.44,0.716 1.384,-0.279 6.498,0.347 3.91,-0.456 1.873,0.333 1.252,-0.242 4.934,0.639 0.239,0.26 1.446,-0.39 2.182,0.198 1.031,0.597 3.579,-0.711 3.975,-0.023 1.158,0.284 2.1,-0.513 1.842,0.253 1.9,0.763 0.58,-0.372 0.351,0.377 0.126,-0.377 0.121,0.45 0.531,0.115 1.503,-0.097 0.163,-0.297 1.905,0.701 2.754,0.03 0.138,-0.333 0.789,0.394 2.738,-0.224 0.695,0.358 3.667,-0.3 6.572,0.69 1.562,0.038 0.202,-0.277 0.566,0.348 1.715,0.003 0.379,-0.269 2.259,0.459 2.988,-0.243 8.829,0.448 0.723,-0.313 4.44,0.711 0.175,0.337 0.736,-0.176 3.48,0.62 3.745,0.162 0.704,0.46 0.905,-0.319 1.502,0.204 0.586,-0.334 2.036,0.386 2.971,-0.548 1.644,0.282 6.555,-0.053 5.977,0.555 0.637,-0.12 0.306,-0.432 1.305,0.344 5.804,0.023 4.579,0.657 7.163,-0.109 0.158,0.362 1.213,-0.416 5.335,0.297 1.123,-0.5 2.204,-0.176 5.71,0.688 9.477,-0.919 4.076,0.221 10.708,-0.213 2.605,0.426 7.658,-0.577 5.086,0.22 0.523,-0.411 0.916,0.295 6.544,0.053 0.542,-0.063 0.458,-0.587 1.474,0.648 1.727,0.139 3.18,-0.321 1.066,0.256 7.172,-0.092 0.965,-0.414 2.434,0.536 1.571,-0.2 1.989,0.237 2.803,-0.379 8.369,0.566 2.501,-0.318 3.371,0.114 2.201,0.162 0.419,0.418 0.2,-0.285 1.291,-0.131 5.744,0.247 0.354,-0.297 3.687,-0.188 2.368,0.288 1.463,-0.189 0.29,0.328 1.898,-0.414 1.755,0.519 2.486,-0.015 0.269,0.385 0.267,-0.371 9.675,-0.649 3.242,-0.765 0.571,0.301 1.941,-0.414 2.055,0.33 1.306,-0.374 0.3,0.194 0.68,-0.379 9.274,-0.184 0.634,-0.469 4.329,-0.663 0.371,0.353 1.202,-0.395 4.13,-0.138 0.961,0.227 0.251,-0.207 0.643,0.377 2.759,0.007 0.115,-0.232 0.518,0.422 0.419,-0.155 1.684,0.465 1.715,-0.138 1.544,0.259 0.212,-0.211 0.917,0.496 2.532,0.168 5.835,1.155 0.225,-0.264 3.08,1.78 1.026,1.11 3.574,2.108 0.372,-0.163 0.256,0.48 1.199,0.501 1.244,1.203 0.245,-0.326 0.281,0.716 5.044,3.398 1.067,1.433 0.072,0.601 0.269,-0.214 1.12,1.743 0.788,2.381 0.931,1.632 -0.318,3.54 -2.576,5.206 -0.429,0.18 -1.049,1.728 -1.895,4.286 -1.563,1.586 -3.221,1.875 -0.672,0.025 -0.675,0.789 -2.082,0.806 -2.843,2.29 -2.951,1.684 -0.335,-0.126 -0.608,0.669 -0.661,-0.25 -2.241,1.035 -2.189,0.525 -2.896,0.152 -5.776,2.127 -0.298,0.059 -0.348,-0.561 -1.167,1.119 -1.962,1.002 -0.778,0.061 -0.324,0.366 -0.197,-0.161 -3.343,1.371 -0.294,-0.235 -3.141,0.595 -0.555,-0.264 -4.833,0.391 -1.466,-0.256 -6.047,0.556 -2.891,-0.083 -0.401,-0.251 -1.659,0.458 -6.636,0.248 -0.238,-0.274 -0.927,0.521 -3.906,0.144 -2.47,0.851 -1.413,0.115 -1.439,-0.336 -0.25,0.335 -2.37,0.253 -3.056,-0.163 -0.281,-0.244 -3.862,0.434 -1.062,-0.464 -2.711,-0.318 -2.992,0.084 -8.131,-0.529 -2.433,0.149 -0.652,-0.552 -1.623,0.246 -0.94,-0.45 -0.687,0.227 -6.193,-0.523 -1.089,0.459 -1.338,-0.494 -0.717,0.272 -1.81,-0.431 -5.088,-0.122 -2.115,-0.487 -0.515,0.196 -0.776,-0.504 -1.354,0.253 -3.758,-0.111 -0.628,-0.267 -3.269,0.303 -5.633,-0.659 -3.253,0.053 -0.785,0.382 -4.564,-0.54 -6.928,0.476 -5.267,-0.167 -0.384,-0.257 -1.233,0.394 -5.65,-0.095 -1.635,0.368 -1.727,-0.505 -1.83,0.214 -1.742,-0.201 -4.711,0.239 -0.366,0.334 -1.194,-0.476 -3.134,-0.018 -0.366,-0.44 -2.363,0.689 -2.257,-0.401 -5.049,0.51 -0.988,-0.269 -5.248,0.31 -3.055,-0.327 -2.989,0.487 -0.662,-0.416 -1.473,0.51 -0.919,-0.171 -5.131,0.84 -3.159,0.064 -0.325,-0.35 -2.598,0.734 -5.202,0.076 -0.877,0.338 -10.012,-0.791 -2.163,0.096 -1.99,-0.213 -0.309,-0.274 -2.228,0.43 -2.675,-0.267 -7.729,0.486 -1.084,-0.239 -1.215,0.284 -6.362,-0.228 -0.954,0.042 -0.282,0.329 -1.008,-0.406 -3.23,-0.037 -0.345,-0.504 -1.194,0.458 -8.112,0.067 -1.2,0.265 -1.097,-0.208 -2.299,0.559 -4.82,-0.103 -0.328,-0.312 -2.347,0.976 -1.675,-0.051 -0.348,0.478 -1.668,-0.568 -0.33,-0.387 -1.517,0.453 -0.542,-0.267 -2.42,0.346 -2.056,-0.59 -3.356,-0.03 -0.347,-0.397 -1.9,0.439 -2.774,-0.645 -6.264,0.323 -3.256,-0.511 -1.266,0.276 -5.914,0.147 -0.338,0.39 -0.829,-0.45 -5.731,0.012 -0.511,0.338 -5.229,-1.423 -2.439,-1.117 -0.474,0.13 -2.034,-0.693 -0.714,-0.597 -5.131,-1.7 -0.798,0.16 -1.942,-0.751 -0.503,-0.637 -1.295,-0.249 -0.182,0.275 -0.767,-0.826 -0.641,-0.136 -1.148,-0.949 -2.939,-0.74 -1.912,-1.189 -1.033,-0.073 -4.088,-1.968 -2.131,-1.441 -0.538,-0.86 -1.493,-0.87 -2.03,-1.887 -2.214,-2.699 -1.217,-3.182 -0.473,-2.631 -0.818,-2.295 0.128,-1.403 -0.744,-2.986 0.02,-1.02 0.446,-1.085 -0.221,-2.366 1.437,-3.274 3.96,3.268 2.053,1.064 5.434,1.563 4.975,2.065 3.113,0.297 5.378,2.113 2.386,0.335 3.935,-0.224 4.037,0.456 1.358,0.438 1.951,-0.021 4.626,1.655 2.558,0.066 4.239,1.152 1.957,-0.059 3.612,0.733 0.494,-0.152 4.162,1.022 3.899,0.073 0.308,-0.256 0.391,0.32 1.999,0.328 1.607,-0.153 1.4,0.395 0.323,-0.21 1.646,0.33 1.945,-0.106 2.036,0.369 0.462,-0.216 1.368,0.369 6.918,-0.268 2.415,0.303 5.186,-0.357 1.832,0.33 4.332,-0.218 0.913,0.384 2.076,-0.381 4.476,0.05 1.036,0.304 5.694,-0.283 7.336,0.352 1.174,-0.256 2.642,0.593 1.863,-0.019 0.364,0.355 2.21,-0.463 1.806,0.393 0.674,-0.264 4.109,0.292 2.139,-0.316 3.194,0.437 5.325,0.178 2.46,-0.442 8.041,0.775 1.587,-0.307 8.108,0.07 1.129,-0.251 9.064,0.447 3.21,-0.592 2.685,-0.056 4.071,0.372 2.707,-0.637 2.711,0.2 4.006,-0.346 5.357,0.439 8.578,0.143 0.479,0.279 2.791,0.045 5.421,0.718 2.686,-0.107 4.484,0.726 4.847,-0.469 11.79,0.225 6.759,0.232 3.95,0.687 3.279,0.195 1.108,-0.396 6.245,0.196 2.27,-0.325 0.45,-0.372 1.758,0.326 2.709,-0.222 0.971,0.232 4.918,-0.597 17.064,0.259 0.53,-0.386 1.187,0.389 2.412,0.123 7.866,-0.476 3.105,0.264 14.414,-1.412 2.647,-0.421 2.282,-0.807 2.36,-0.248 0.797,0.284 6.128,-0.96 2.172,0.098 1.097,-0.303 0.624,0.282 4.569,-1.437 2.162,-0.101 4.298,-1.475 5.641,-0.7 4.709,-1.039 2.303,-0.007 1.74,-0.707 0.095,0.343 1.566,-0.629 -0.02,0.242 0.016,-0.298 -0.119,0.27 -3.541,0.375 -11.653,0.201 -18.381,-1.193 -24.626,-0.157 -6.9,-0.502 -32.817,-0.003 -5.928,-0.314 -6.942,0.462 -1.421,-0.372 -2.176,-0.008 -0.283,-0.394 -0.246,0.319"
       id="path336"
       style="fill:#e63ee6;fill-opacity:0.982332;stroke:#85ff28;stroke-width:29.9981;stroke-dasharray:none;stroke-opacity:1;paint-order:markers fill stroke" />
  </g>
  <g
     id="g1151"
     transform="translate(-31.907413,-154.21914)">
    <g
       id="g138"
       transform="translate(21.271606,236.64662)">
      <path
         fill="none"
         stroke="#000000"
         stroke-width="4"
         stroke-linecap="round"
         stroke-linejoin="round"
         d="m -490.654,166.613 -0.586,0.437 -2.028,0.167 0.399,0.238 -0.552,0.16 -0.503,0.733 -0.533,-0.06 0.434,0.21 -0.232,0.432 3.018,0.266 5.069,-0.245 3.48,-1.181 6.925,-1.321 1.521,-0.026 3.981,-1.169 1.988,-0.155 9.793,1.404 1.881,0.008 1.329,-0.508 4.431,0.355 4.231,-0.117 3.029,0.817 0.634,0.491 1.38,-0.124 2.453,0.55 2.799,-0.436 2.28,0.323 1.889,-0.238 8.73,0.946 1.56,-0.232 3.926,0.867 9.843,0.028 0.258,-0.219 2.29,0.427 4.262,0.062 1.543,0.225 0.702,0.421 16.992,-0.491 3.015,0.548 3.235,-0.235 5.604,0.621 7.831,-0.828 3.785,-0.021 16.496,1.056 1.225,-0.197 1.134,0.289 5.115,0.096 6.605,-0.49 8.473,0.497 1.098,-0.312 2.735,0.377 6.591,-0.662 3.615,0.378 13.229,-0.734 1.326,-0.489 6.315,0.611 13.636,-0.36 8.931,0.696 1.576,0.49 7.617,-0.044 8.057,-0.551 4.269,0.247 0.686,0.429 2.165,-0.365 5.875,-0.116 3.34,-0.655 5.115,0.526 2.725,-0.267 1.341,0.175 3.088,-0.344 0.684,-0.37 1.855,0.677 3.183,0.357 4.763,-0.184 2.272,0.412 2.41,-0.463 0.575,0.04 -0.261,0.129 -0.123,-0.285 -0.231,0.248 0.333,0.218 0.033,-0.357 4.298,0.897 0.29,-0.274 -0.438,-0.049"
         id="path136" />
    </g>
    <g
       id="g142"
       transform="translate(21.271606,236.64662)">
      <path
         fill="none"
         stroke="#000000"
         stroke-width="4"
         stroke-linecap="round"
         stroke-linejoin="round"
         d="m -489.906,252.85 0.503,0.203 -0.415,0.289 0.887,0.407 2.863,0.789 7.23,0.982 7.7,-0.655 19.891,0.598 10.517,-1.321 7.569,-0.436 13.624,0.38 15.243,-1.18 24.832,-0.021 10.288,-0.724 1.646,-0.405 14.909,-0.489 4.625,0.551 10.497,0.333 23.488,-0.785 16.5,1.415 21.252,-0.6 4.228,0.851 13.504,0.808 19.806,-0.076 1.159,0.326 3.996,-0.423 7.37,0.345 1.415,0.424 4.292,-0.134 6.252,0.494 12.505,-0.555 0.545,-0.325 2.56,0.671 2.996,0.07 -0.348,-0.213 0.065,0.222 0.02,-0.322 0.163,0.228 -0.427,-0.015"
         id="path140" />
    </g>
    <g
       id="g146"
       transform="translate(21.271606,236.64662)">
      <path
         fill="none"
         stroke="#000000"
         stroke-width="4"
         stroke-linecap="round"
         stroke-linejoin="round"
         d="m -203.214,166.602 0.975,0.394 4.698,-0.437 2.442,0.438 1.658,-0.294 2.995,1.424 2.353,0.414 4.573,0.533 4.11,-0.101 2.55,0.41 1.817,0.841 7.929,0.653 1.873,0.725 1.322,0.146 1.63,1.005 2.696,0.574 4.539,2.421 3.653,2.497 1.552,1.629 0.678,1.353 5.676,7.532 2.607,4.377 3.464,7.842 1.028,4.655 0.456,5.117 -0.101,1.481 -1.783,6.558 -2.908,7.486 -2.253,4.343 -0.507,0.381 -0.795,1.581 -0.925,0.669 -1.049,1.398 -0.746,1.464 -3.92,4.138 -1.263,0.568 -2.369,2.085 -1.776,0.789 -2.324,1.845 -1.091,0.54 -5.849,1.409 -1.122,0.622 -1.945,0.142 -3.922,1.033 -6.537,0.385 -3.841,0.663 -4.602,-0.082 -3.844,0.494 -8.218,0.167 -1.422,-0.27 -4.857,1.153"
         id="path144" />
    </g>
    <g
       id="g150"
       transform="translate(21.271606,236.64662)">
      <path
         fill="none"
         stroke="#000000"
         stroke-width="4"
         stroke-linecap="round"
         stroke-linejoin="round"
         d="m -491.095,166.245 0.518,0.103 -1.256,0.092 0.104,0.184 -1.179,-0.441 -1.942,-0.116 -5.379,0.873 -3.704,0.055 -3,0.976 -7.287,0.595 -1.592,0.632 -3.5,0.699 -3.263,1.588 -0.171,0.374 -2.477,0.689 -1.097,1.058 -3.958,2.199 -4.549,4.25 -0.764,0.334 -0.583,0.982 0.168,0.64 -3.071,2.81 -1.204,2.01 -2.998,3.435 -0.724,2.135 -4.272,6.518 -0.05,2.042 -0.682,1.459 -0.659,2.894 -0.425,4.907 -0.689,1.345 0.266,1.24 -0.319,1.814 0.234,1.503 0.804,1.857 -0.135,1.18 0.756,2.41 0.052,1.482 0.956,1.71 0.185,0.985 3.143,4.56 6.076,5.222 1.675,1.943 3.064,2.122 3.598,1.449 4.365,3.36 1.8,0.936 1.388,1.46 10.812,4.993 3.769,1.101 6.221,0.416 6.396,-0.54 4.221,0.019 7.954,1.212 5.528,1.283"
         id="path148" />
    </g>
    <g
       id="g154"
       transform="translate(21.271606,236.64662)">
      <path
         fill="none"
         stroke="#000000"
         stroke-width="4"
         stroke-linecap="round"
         stroke-linejoin="round"
         d="m -469.76,189.157 0.237,-0.3 -0.083,0.273 -0.974,-0.398 -3.307,1.544 -3.123,2.257 -0.362,0.717 -0.973,0.484 -2.06,2.198 -1.477,2.143 -1.167,2.735 -0.933,5.047 -0.138,2.49 0.93,4.379 1.119,1.812 2.423,1.946 1.921,0.996 2.474,0.546 4.685,0.095 1.759,-0.47 -0.026,0.302 V 217.6"
         id="path152" />
    </g>
    <g
       id="g158"
       transform="translate(21.271606,236.64662)">
      <path
         fill="none"
         stroke="#000000"
         stroke-width="4"
         stroke-linecap="round"
         stroke-linejoin="round"
         d="m -442.995,192.25 -0.734,-0.196 -2.521,0.355 -4.258,2.96 -1.6,1.698 -2.287,4.022 -0.669,1.854 -0.333,2.904 0.307,6.662 1.694,4.392 1.685,1.753 2.018,0.933 3.916,-0.07 1.686,-0.481 4.388,-2.878 2.598,-2.948 1.614,-2.505 1.424,-2.964 0.458,-2.435 -0.071,-4.949 -0.598,-2.965 -0.779,-1.444 -3.761,-3.413 -1.872,-0.653 -1.263,0.202 -3.336,1.153 -1.085,0.785"
         id="path156" />
    </g>
    <g
       id="g162"
       transform="translate(21.271606,236.64662)">
      <path
         fill="none"
         stroke="#000000"
         stroke-width="4"
         stroke-linecap="round"
         stroke-linejoin="round"
         d="m -420.231,192.559 -0.226,0.043 0.117,3.826 0.807,7.536 -0.242,5.704 0.326,2.876 -0.033,8.172"
         id="path160" />
    </g>
    <g
       id="g166"
       transform="translate(21.271606,236.64662)">
      <path
         fill="none"
         stroke="#000000"
         stroke-width="4"
         stroke-linecap="round"
         stroke-linejoin="round"
         d="m -419.482,191.152 1.309,3.39 3.395,3.411 1.301,1.776 2.391,5.397 2.78,4.072 1.536,3.157 1.081,1.492 1.644,4.782"
         id="path164" />
    </g>
    <g
       id="g170"
       transform="translate(21.271606,236.64662)">
      <path
         fill="none"
         stroke="#000000"
         stroke-width="4"
         stroke-linecap="round"
         stroke-linejoin="round"
         d="m -401.644,190.367 0.047,18.796 -0.663,8.338"
         id="path168" />
    </g>
    <g
       id="g174"
       transform="translate(21.271606,236.64662)">
      <path
         fill="none"
         stroke="#000000"
         stroke-width="4"
         stroke-linecap="round"
         stroke-linejoin="round"
         d="m -378.216,192.956 -0.336,0.037 -0.19,5.857 0.609,10.385 -0.259,10.008 0.005,-0.255 -0.094,0.327 0.02,-0.201 -0.451,0.189"
         id="path172" />
    </g>
    <g
       id="g178"
       transform="translate(21.271606,236.64662)">
      <path
         fill="none"
         stroke="#000000"
         stroke-width="4"
         stroke-linecap="round"
         stroke-linejoin="round"
         d="m -390.456,190.796 -0.041,0.407 4.718,-1.173 3.174,-0.243 6.327,1.467 8.844,0.214"
         id="path176" />
    </g>
    <g
       id="g182"
       transform="translate(21.271606,236.64662)">
      <path
         fill="none"
         stroke="#000000"
         stroke-width="4"
         stroke-linecap="round"
         stroke-linejoin="round"
         d="m -352.052,192.635 -1.548,4.248 -1.618,6.043 -1.363,6.959 -2.546,8.854"
         id="path180" />
    </g>
    <g
       id="g186"
       transform="translate(21.271606,236.64662)">
      <path
         fill="none"
         stroke="#000000"
         stroke-width="4"
         stroke-linecap="round"
         stroke-linejoin="round"
         d="m -350.741,191.267 0.935,3.11 1.83,3.794 1.674,5.465 2.153,7.657 1.309,7.77"
         id="path184" />
    </g>
    <g
       id="g190"
       transform="translate(21.271606,236.64662)">
      <path
         fill="none"
         stroke="#000000"
         stroke-width="4"
         stroke-linecap="round"
         stroke-linejoin="round"
         d="m -353.615,208.143 6.937,-0.873 1.462,0.838"
         id="path188" />
    </g>
    <g
       id="g194"
       transform="translate(21.271606,236.64662)">
      <path
         fill="none"
         stroke="#000000"
         stroke-width="4"
         stroke-linecap="round"
         stroke-linejoin="round"
         d="m -320.739,191.99 -0.249,-0.244 -2.77,-0.081 -3.784,3.124 -1.377,2.075 -1.445,3.393 -0.703,3.212 -0.905,2.41 -0.257,5.304 1.007,3.245 3.088,3.147 1.22,0.804 1.788,0.909 1.635,0.255 0.999,-0.237 0.656,0.275 1.145,-0.52 1.412,0.286 -0.1,-0.271 0.652,-0.731"
         id="path192" />
    </g>
    <g
       id="g198"
       transform="translate(21.271606,236.64662)">
      <path
         fill="none"
         stroke="#000000"
         stroke-width="4"
         stroke-linecap="round"
         stroke-linejoin="round"
         d="m -301.208,193.588 -0.194,-0.105 -0.033,1.511 0.692,7.465 -1.267,16.392"
         id="path196" />
    </g>
    <g
       id="g202"
       transform="translate(21.271606,236.64662)">
      <path
         fill="none"
         stroke="#000000"
         stroke-width="4"
         stroke-linecap="round"
         stroke-linejoin="round"
         d="m -311.663,191.008 -0.336,0.04 0.183,0.198 2.05,-0.17 10.716,-1.336 5.063,0.712 1.136,-0.19 4.511,0.45 1.204,-0.176 0.116,0.232 -0.689,0.084"
         id="path200" />
    </g>
    <g
       id="g206"
       transform="translate(21.271606,236.64662)">
      <path
         fill="none"
         stroke="#000000"
         stroke-width="4"
         stroke-linecap="round"
         stroke-linejoin="round"
         d="m -259.306,194.634 0.312,12.321 -0.727,12.409"
         id="path204" />
    </g>
    <g
       id="g210"
       transform="translate(21.271606,236.64662)">
      <path
         fill="none"
         stroke="#000000"
         stroke-width="4"
         stroke-linecap="round"
         stroke-linejoin="round"
         d="m -259.716,192.428 3.763,5.473 1.497,1.455 1.022,1.636 3.651,2.901 0.951,1.049 -0.722,-0.284"
         id="path208" />
    </g>
    <g
       id="g214"
       transform="translate(21.271606,236.64662)">
      <path
         fill="none"
         stroke="#000000"
         stroke-width="4"
         stroke-linecap="round"
         stroke-linejoin="round"
         d="m -242.581,194.295 -0.089,-0.238 -1.054,1.428 -3.03,2.908 -2.913,3.839 -0.67,0.659 0.175,-0.429"
         id="path212" />
    </g>
    <g
       id="g218"
       transform="translate(21.271606,236.64662)">
      <path
         fill="none"
         stroke="#000000"
         stroke-width="4"
         stroke-linecap="round"
         stroke-linejoin="round"
         d="m -240.672,192.847 -0.57,7.675 0.14,5.742 -1.229,6.973 -0.017,2.965 0.407,2.72"
         id="path216" />
    </g>
    <g
       id="g222"
       transform="translate(21.271606,236.64662)">
      <path
         fill="none"
         stroke="#000000"
         stroke-width="4"
         stroke-linecap="round"
         stroke-linejoin="round"
         d="m -228.302,195.495 0.454,-0.696 -0.203,-0.073 -0.137,1.23 -0.218,4.803 0.694,5.184 -0.23,12.861"
         id="path220" />
    </g>
    <g
       id="g230"
       transform="translate(21.271606,236.64662)">
      <path
         fill="none"
         stroke="#000000"
         stroke-width="4"
         stroke-linecap="round"
         stroke-linejoin="round"
         d="m -226.667,205.507 0.126,0.203 2.981,-0.591 0.808,0.297"
         id="path228" />
    </g>
    <g
       id="g234"
       transform="translate(21.271606,236.64662)">
      <path
         fill="none"
         stroke="#000000"
         stroke-width="4"
         stroke-linecap="round"
         stroke-linejoin="round"
         d="m -227.407,193.364 9.565,-1.255 2.463,0.64"
         id="path232" />
    </g>
    <g
       id="g226"
       inkscape:label="g226"
       transform="translate(21.271606,236.64662)">
      <path
         fill="none"
         stroke="#000000"
         stroke-width="4"
         stroke-linecap="round"
         stroke-linejoin="round"
         d="m -227.551,219.15 0.003,-0.261 3.771,-0.802 3.976,-1.408 2.086,-0.212 2.092,0.622 1.864,-0.029 -0.389,-0.211"
         id="path224" />
    </g>
  </g>
</g>
</svg>
